<?xml version="1.0" standalone="no"?>
<!DOCTYPE svg PUBLIC "-//W3C//DTD SVG 20010904//EN"
 "http://www.w3.org/TR/2001/REC-SVG-20010904/DTD/svg10.dtd">
<svg version="1.0" xmlns="http://www.w3.org/2000/svg"
 width="260.000000pt" height="260.000000pt" viewBox="0 0 260.000000 260.000000"
 preserveAspectRatio="xMidYMid meet">
<metadata>
Created by potrace 1.14, written by Peter Selinger 2001-2017
</metadata>
<g transform="translate(0.000000,260.000000) scale(0.100000,-0.100000)"
fill="#000000" stroke="none">
<path d="M0 1300 l0 -1300 1300 0 1300 0 0 1300 0 1300 -1300 0 -1300 0 0
-1300z m1430 890 c126 -14 234 -45 337 -96 206 -100 303 -254 259 -409 -16
-54 -71 -155 -84 -155 -4 0 -20 25 -36 56 -83 159 -332 278 -581 278 -197 0
-339 -56 -466 -183 -119 -118 -169 -239 -169 -404 0 -114 14 -175 62 -277 74
-155 229 -280 403 -325 79 -21 252 -21 328 -1 148 40 249 125 292 247 l14 39
-262 0 c-255 0 -263 1 -312 24 -89 42 -142 124 -152 237 l-6 59 558 0 557 0
-4 -137 c-4 -122 -8 -149 -36 -232 -80 -233 -225 -394 -446 -496 -111 -52
-215 -76 -351 -82 -142 -6 -233 6 -363 49 -275 91 -483 302 -578 587 -190 569
187 1157 783 1220 112 12 157 12 253 1z"/>
</g>
</svg>
